# Blender v2.81 (sub 16) OBJ File: ''
# www.blender.org
mtllib model_normalized.processed.mtl
o model_normalized
v 0.000000 0.000000 -0.108457
v 0.004384 0.021331 -0.108457
v 0.008588 0.020012 -0.108457
v 0.012440 0.017873 -0.108457
v 0.015784 0.015003 -0.108457
v 0.018481 0.011519 -0.108457
v 0.020421 0.007563 -0.108457
v 0.021525 0.003298 -0.108457
v 0.021749 -0.001103 -0.108457
v 0.021081 -0.005458 -0.108457
v 0.019551 -0.009590 -0.108457
v 0.017220 -0.013330 -0.108457
v 0.014185 -0.016523 -0.108457
v 0.010568 -0.019040 -0.108457
v 0.006519 -0.020778 -0.108457
v 0.002203 -0.021665 -0.108457
v -0.002203 -0.021665 -0.108457
v -0.006519 -0.020778 -0.108457
v -0.010568 -0.019040 -0.108457
v -0.014185 -0.016523 -0.108457
v -0.017220 -0.013330 -0.108457
v -0.019551 -0.009590 -0.108457
v -0.021081 -0.005458 -0.108457
v -0.021749 -0.001103 -0.108457
v -0.021525 0.003298 -0.108457
v -0.020421 0.007563 -0.108457
v -0.018481 0.011519 -0.108457
v -0.015784 0.015003 -0.108457
v -0.012440 0.017873 -0.108457
v -0.008588 0.020012 -0.108457
v -0.004384 0.021331 -0.108457
v 0.000000 0.021777 -0.108457
v 0.008588 0.020012 0.108457
v 0.004384 0.021331 0.108457
v 0.000000 -0.000000 0.108457
v 0.012440 0.017873 0.108457
v 0.015784 0.015003 0.108457
v 0.018481 0.011519 0.108457
v 0.020421 0.007563 0.108457
v 0.021525 0.003298 0.108457
v 0.021749 -0.001103 0.108457
v 0.021081 -0.005458 0.108457
v 0.019551 -0.009590 0.108457
v 0.017220 -0.013330 0.108457
v 0.014185 -0.016523 0.108457
v 0.010568 -0.019040 0.108457
v 0.006519 -0.020778 0.108457
v 0.002203 -0.021665 0.108457
v -0.002203 -0.021665 0.108457
v -0.006519 -0.020778 0.108457
v -0.010568 -0.019040 0.108457
v -0.014185 -0.016523 0.108457
v -0.017220 -0.013330 0.108457
v -0.019551 -0.009590 0.108457
v -0.021081 -0.005458 0.108457
v -0.021749 -0.001103 0.108457
v -0.021525 0.003298 0.108457
v -0.020421 0.007563 0.108457
v -0.018481 0.011519 0.108457
v -0.015784 0.015003 0.108457
v -0.012440 0.017873 0.108457
v -0.008588 0.020012 0.108457
v -0.004384 0.021331 0.108457
v 0.000000 0.021777 0.108457
vt 0.869509 0.100264
vt 0.994658 0.130318
vt 0.984192 0.148985
vt 0.969031 0.165657
vt 0.949795 0.179652
vt 0.927273 0.190397
vt 0.902386 0.197452
vt 0.876153 0.200528
vt 0.849647 0.199499
vt 0.823956 0.194408
vt 0.800128 0.185462
vt 0.779142 0.173028
vt 0.761855 0.157616
vt 0.748975 0.139855
vt 0.741031 0.120473
vt 0.738346 0.100264
vt 0.741031 0.080055
vt 0.748975 0.060674
vt 0.761855 0.042913
vt 0.779142 0.027500
vt 0.800128 0.015066
vt 0.823955 0.006120
vt 0.849647 0.001029
vt 0.876153 0.000000
vt 0.902386 0.003076
vt 0.927273 0.010131
vt 0.949795 0.020876
vt 0.969031 0.034871
vt 0.984192 0.051543
vt 0.994658 0.070210
vt 1.000000 0.090108
vt 1.000000 0.110421
vt 0.994658 0.270738
vt 1.000000 0.290636
vt 0.869509 0.300792
vt 0.984192 0.252071
vt 0.969031 0.235399
vt 0.949795 0.221404
vt 0.927273 0.210659
vt 0.902386 0.203604
vt 0.876153 0.200528
vt 0.849648 0.201557
vt 0.823955 0.206649
vt 0.800128 0.215594
vt 0.779142 0.228028
vt 0.761855 0.243441
vt 0.748975 0.261202
vt 0.741031 0.280584
vt 0.738346 0.300792
vt 0.741031 0.321001
vt 0.748975 0.340383
vt 0.761855 0.358144
vt 0.779142 0.373557
vt 0.800129 0.385990
vt 0.823956 0.394936
vt 0.849648 0.400028
vt 0.876153 0.401057
vt 0.902386 0.397981
vt 0.927273 0.390926
vt 0.949795 0.380181
vt 0.969031 0.366186
vt 0.984192 0.349513
vt 0.994658 0.330846
vt 1.000000 0.310949
vt 0.738346 1.000000
vt 0.716563 1.000000
vt 0.738346 0.000000
vt 0.716563 0.000000
vt 0.692175 1.000000
vt 0.692175 0.000000
vt 0.666179 1.000000
vt 0.666179 0.000000
vt 0.639640 1.000000
vt 0.639639 0.000000
vt 0.613644 1.000000
vt 0.613644 0.000000
vt 0.589255 1.000000
vt 0.589255 0.000000
vt 0.567473 1.000000
vt 0.567473 0.000000
vt 0.378315 0.999999
vt 0.356533 0.999999
vt 0.378315 0.000000
vt 0.356533 0.000000
vt 0.332144 0.999999
vt 0.332144 0.000000
vt 0.306148 0.999999
vt 0.306148 0.000000
vt 0.279609 0.999999
vt 0.279609 0.000000
vt 0.253613 0.999999
vt 0.253613 0.000000
vt 0.229225 0.999999
vt 0.229225 0.000000
vt 0.207443 0.999999
vt 0.207442 0.000000
vt 0.189158 0.999999
vt 0.189158 0.000000
vt 0.567473 1.000000
vt 0.545690 1.000000
vt 0.567473 0.000000
vt 0.545690 0.000000
vt 0.521302 1.000000
vt 0.521302 0.000000
vt 0.495306 1.000000
vt 0.495306 0.000000
vt 0.468767 1.000000
vt 0.468767 0.000000
vt 0.442771 1.000000
vt 0.442771 0.000000
vt 0.418382 1.000000
vt 0.418382 0.000000
vt 0.396600 1.000000
vt 0.396600 0.000000
vt 0.378315 1.000000
vt 0.378315 0.000000
vt 0.189158 1.000000
vt 0.167375 1.000000
vt 0.189157 0.000000
vt 0.167375 0.000000
vt 0.142987 1.000000
vt 0.142987 0.000000
vt 0.116991 1.000000
vt 0.116991 0.000000
vt 0.090452 1.000000
vt 0.090451 0.000000
vt 0.064456 1.000000
vt 0.064455 0.000000
vt 0.040067 1.000000
vt 0.040067 0.000000
vt 0.018285 1.000000
vt 0.000000 1.000000
vt 0.018285 0.000000
vt 0.000000 0.000000
vn 0.0000 0.0000 -1.0000
vn 0.1466 0.7136 -0.6850
vn 0.2873 0.6695 -0.6850
vn 0.4162 0.5979 -0.6850
vn 0.5280 0.5019 -0.6850
vn 0.6182 0.3854 -0.6850
vn 0.6832 0.2530 -0.6850
vn 0.7201 0.1103 -0.6850
vn 0.7276 -0.0369 -0.6850
vn 0.7053 -0.1826 -0.6850
vn 0.6540 -0.3208 -0.6850
vn 0.5761 -0.4459 -0.6850
vn 0.4745 -0.5528 -0.6850
vn 0.3535 -0.6370 -0.6850
vn 0.2181 -0.6951 -0.6850
vn 0.0737 -0.7248 -0.6850
vn -0.0737 -0.7248 -0.6850
vn -0.2181 -0.6951 -0.6850
vn -0.3535 -0.6370 -0.6850
vn -0.4745 -0.5528 -0.6850
vn -0.5761 -0.4459 -0.6850
vn -0.6540 -0.3208 -0.6850
vn -0.7053 -0.1826 -0.6850
vn -0.7276 -0.0369 -0.6850
vn -0.7201 0.1103 -0.6850
vn -0.6832 0.2530 -0.6850
vn -0.6182 0.3854 -0.6850
vn -0.5280 0.5019 -0.6850
vn -0.4162 0.5979 -0.6850
vn -0.2873 0.6695 -0.6850
vn -0.1466 0.7136 -0.6850
vn 0.0000 0.7285 -0.6850
vn 0.2873 0.6695 0.6850
vn 0.1466 0.7136 0.6850
vn 0.0000 0.0000 1.0000
vn 0.4162 0.5979 0.6850
vn 0.5280 0.5019 0.6850
vn 0.6182 0.3854 0.6850
vn 0.6832 0.2530 0.6850
vn 0.7201 0.1103 0.6850
vn 0.7276 -0.0369 0.6850
vn 0.7053 -0.1826 0.6850
vn 0.6540 -0.3208 0.6850
vn 0.5761 -0.4459 0.6850
vn 0.4745 -0.5528 0.6850
vn 0.3535 -0.6370 0.6850
vn 0.2181 -0.6951 0.6850
vn 0.0737 -0.7248 0.6850
vn -0.0737 -0.7248 0.6850
vn -0.2181 -0.6951 0.6850
vn -0.3535 -0.6370 0.6850
vn -0.4745 -0.5528 0.6850
vn -0.5761 -0.4459 0.6850
vn -0.6540 -0.3208 0.6850
vn -0.7053 -0.1826 0.6850
vn -0.7276 -0.0369 0.6850
vn -0.7201 0.1103 0.6850
vn -0.6832 0.2530 0.6850
vn -0.6182 0.3854 0.6850
vn -0.5280 0.5019 0.6850
vn -0.4162 0.5979 0.6850
vn -0.2873 0.6695 0.6850
vn -0.1466 0.7136 0.6850
vn 0.0000 0.7285 0.6850
g model_normalized_model_normalized_Default_OBJ
usemtl Default_OBJ
s 1
f 1/1/1 2/2/2 3/3/3
f 1/1/1 3/3/3 4/4/4
f 1/1/1 4/4/4 5/5/5
f 1/1/1 5/5/5 6/6/6
f 1/1/1 6/6/6 7/7/7
f 1/1/1 7/7/7 8/8/8
f 1/1/1 8/8/8 9/9/9
f 1/1/1 9/9/9 10/10/10
f 1/1/1 10/10/10 11/11/11
f 1/1/1 11/11/11 12/12/12
f 1/1/1 12/12/12 13/13/13
f 1/1/1 13/13/13 14/14/14
f 1/1/1 14/14/14 15/15/15
f 1/1/1 15/15/15 16/16/16
f 1/1/1 16/16/16 17/17/17
f 1/1/1 17/17/17 18/18/18
f 1/1/1 18/18/18 19/19/19
f 1/1/1 19/19/19 20/20/20
f 1/1/1 20/20/20 21/21/21
f 1/1/1 21/21/21 22/22/22
f 1/1/1 22/22/22 23/23/23
f 1/1/1 23/23/23 24/24/24
f 1/1/1 24/24/24 25/25/25
f 1/1/1 25/25/25 26/26/26
f 1/1/1 26/26/26 27/27/27
f 1/1/1 27/27/27 28/28/28
f 1/1/1 28/28/28 29/29/29
f 1/1/1 29/29/29 30/30/30
f 1/1/1 30/30/30 31/31/31
f 1/1/1 31/31/31 32/32/32
f 1/1/1 32/32/32 2/2/2
f 33/33/33 34/34/34 35/35/35
f 36/36/36 33/33/33 35/35/35
f 37/37/37 36/36/36 35/35/35
f 38/38/38 37/37/37 35/35/35
f 39/39/39 38/38/38 35/35/35
f 40/40/40 39/39/39 35/35/35
f 41/41/41 40/40/40 35/35/35
f 42/42/42 41/41/41 35/35/35
f 43/43/43 42/42/42 35/35/35
f 44/44/44 43/43/43 35/35/35
f 45/45/45 44/44/44 35/35/35
f 46/46/46 45/45/45 35/35/35
f 47/47/47 46/46/46 35/35/35
f 48/48/48 47/47/47 35/35/35
f 49/49/49 48/48/48 35/35/35
f 50/50/50 49/49/49 35/35/35
f 51/51/51 50/50/50 35/35/35
f 52/52/52 51/51/51 35/35/35
f 53/53/53 52/52/52 35/35/35
f 54/54/54 53/53/53 35/35/35
f 55/55/55 54/54/54 35/35/35
f 56/56/56 55/55/55 35/35/35
f 57/57/57 56/56/56 35/35/35
f 58/58/58 57/57/57 35/35/35
f 59/59/59 58/58/58 35/35/35
f 60/60/60 59/59/59 35/35/35
f 61/61/61 60/60/60 35/35/35
f 62/62/62 61/61/61 35/35/35
f 63/63/63 62/62/62 35/35/35
f 64/64/64 63/63/63 35/35/35
f 34/34/34 64/64/64 35/35/35
f 34/65/34 33/66/33 2/67/2
f 2/67/2 33/66/33 3/68/3
f 33/66/33 36/69/36 3/68/3
f 3/68/3 36/69/36 4/70/4
f 36/69/36 37/71/37 4/70/4
f 4/70/4 37/71/37 5/72/5
f 37/71/37 38/73/38 5/72/5
f 5/72/5 38/73/38 6/74/6
f 38/73/38 39/75/39 6/74/6
f 6/74/6 39/75/39 7/76/7
f 39/75/39 40/77/40 7/76/7
f 7/76/7 40/77/40 8/78/8
f 40/77/40 41/79/41 8/78/8
f 8/78/8 41/79/41 9/80/9
f 41/81/41 42/82/42 9/83/9
f 9/83/9 42/82/42 10/84/10
f 42/82/42 43/85/43 10/84/10
f 10/84/10 43/85/43 11/86/11
f 43/85/43 44/87/44 11/86/11
f 11/86/11 44/87/44 12/88/12
f 44/87/44 45/89/45 12/88/12
f 12/88/12 45/89/45 13/90/13
f 45/89/45 46/91/46 13/90/13
f 13/90/13 46/91/46 14/92/14
f 46/91/46 47/93/47 14/92/14
f 14/92/14 47/93/47 15/94/15
f 47/93/47 48/95/48 15/94/15
f 15/94/15 48/95/48 16/96/16
f 48/95/48 49/97/49 16/96/16
f 16/96/16 49/97/49 17/98/17
f 49/99/49 50/100/50 17/101/17
f 17/101/17 50/100/50 18/102/18
f 50/100/50 51/103/51 18/102/18
f 18/102/18 51/103/51 19/104/19
f 51/103/51 52/105/52 19/104/19
f 19/104/19 52/105/52 20/106/20
f 52/105/52 53/107/53 20/106/20
f 20/106/20 53/107/53 21/108/21
f 53/107/53 54/109/54 21/108/21
f 21/108/21 54/109/54 22/110/22
f 54/109/54 55/111/55 22/110/22
f 22/110/22 55/111/55 23/112/23
f 55/111/55 56/113/56 23/112/23
f 23/112/23 56/113/56 24/114/24
f 56/113/56 57/115/57 24/114/24
f 24/114/24 57/115/57 25/116/25
f 57/117/57 58/118/58 25/119/25
f 25/119/25 58/118/58 26/120/26
f 58/118/58 59/121/59 26/120/26
f 26/120/26 59/121/59 27/122/27
f 59/121/59 60/123/60 27/122/27
f 27/122/27 60/123/60 28/124/28
f 60/123/60 61/125/61 28/124/28
f 28/124/28 61/125/61 29/126/29
f 61/125/61 62/127/62 29/126/29
f 29/126/29 62/127/62 30/128/30
f 62/127/62 63/129/63 30/128/30
f 30/128/30 63/129/63 31/130/31
f 64/131/64 34/132/34 32/133/32
f 32/133/32 34/132/34 2/134/2
f 63/129/63 64/131/64 31/130/31
f 31/130/31 64/131/64 32/133/32
