# Blender v2.81 (sub 16) OBJ File: ''
# www.blender.org
mtllib model_normalized.processed.mtl
o model_normalized
v -0.035841 -0.075755 0.089356
v -0.035841 0.075755 0.089356
v -0.035841 -0.075755 -0.089356
v 0.035841 -0.075755 -0.089356
v -0.035841 0.075755 -0.089356
v 0.035841 0.075755 0.089356
v 0.035841 -0.075755 0.089356
v 0.035841 0.075755 -0.089356
vt 0.500000 0.500000
vt 0.000000 0.500000
vt 0.500000 0.000000
vt 0.236562 1.000000
vt 0.473125 0.500000
vt 0.473125 1.000000
vt 0.000000 0.000000
vt 0.736562 0.500000
vt 0.973125 0.923892
vt 0.736562 0.923892
vt 0.736562 0.923892
vt 0.500000 0.923892
vt 0.236562 0.500000
vt 0.736562 0.500000
vt 0.236562 0.500000
vt 0.000000 1.000000
vt 0.973125 0.500000
vt 0.236562 1.000000
vt 1.000000 0.000000
vt 0.500000 0.500000
vt 0.500000 0.000000
vt 1.000000 0.500000
vn -0.5773 -0.5773 0.5773
vn -0.5773 0.5773 0.5773
vn -0.5773 -0.5773 -0.5773
vn 0.5773 -0.5773 -0.5773
vn -0.5773 0.5773 -0.5773
vn 0.5773 0.5773 0.5773
vn 0.5773 -0.5773 0.5773
vn 0.5773 0.5773 -0.5773
g model_normalized_model_normalized_Default_OBJ
usemtl Default_OBJ
s 1
f 1/1/1 2/2/2 3/3/3
f 4/4/4 1/5/1 3/6/3
f 3/3/3 2/2/2 5/7/5
f 5/8/5 4/9/4 3/10/3
f 1/1/1 6/11/6 2/12/2
f 7/13/7 1/5/1 4/4/4
f 7/14/7 6/11/6 1/1/1
f 2/2/2 6/15/6 5/16/5
f 8/17/8 4/9/4 5/8/5
f 5/16/5 6/15/6 8/18/8
f 8/19/8 7/20/7 4/21/4
f 6/22/6 7/20/7 8/19/8
