# Blender v2.81 (sub 16) OBJ File: ''
# www.blender.org
mtllib model_normalized.processed.mtl
o model_normalized
v -0.036118 -0.104643 0.088396
v -0.036118 0.104643 0.088396
v -0.036118 -0.104643 -0.088396
v 0.036118 -0.104643 -0.088396
v -0.036118 0.104643 -0.088396
v 0.036118 0.104643 0.088396
v 0.036118 -0.104643 0.088396
v 0.036118 0.104643 -0.088396
vt 0.500000 0.500000
vt 0.500000 0.000000
vt 1.000000 0.500000
vt 0.295704 0.922366
vt 0.500000 0.922366
vt 1.000000 0.000000
vt 0.500000 0.500000
vt 0.704296 1.000000
vt 0.500000 1.000000
vt 0.000000 0.500000
vt 0.204296 1.000000
vt 0.000000 1.000000
vt 0.295704 0.500000
vt 0.204296 0.500000
vt 0.908592 0.922366
vt 0.704296 0.922366
vt 0.908592 0.500000
vt 0.704296 0.500000
vt 0.500000 0.500000
vt 0.000000 0.000000
vt 0.500000 0.000000
vt 0.000000 0.500000
vn -0.5773 -0.5773 0.5773
vn -0.5773 0.5773 0.5773
vn -0.5773 -0.5773 -0.5773
vn 0.5773 -0.5773 -0.5773
vn -0.5773 0.5773 -0.5773
vn 0.5773 0.5773 0.5773
vn 0.5773 -0.5773 0.5773
vn 0.5773 0.5773 -0.5773
g model_normalized_model_normalized_Default_OBJ
usemtl Default_OBJ
s 1
f 1/1/1 2/2/2 3/3/3
f 4/4/4 1/1/1 3/5/3
f 3/3/3 2/2/2 5/6/5
f 5/7/5 4/8/4 3/9/3
f 1/10/1 6/11/6 2/12/2
f 7/13/7 1/1/1 4/4/4
f 7/14/7 6/11/6 1/10/1
f 2/15/2 6/16/6 5/17/5
f 8/18/8 4/8/4 5/7/5
f 5/17/5 6/16/6 8/18/8
f 8/19/8 7/20/7 4/21/4
f 6/22/6 7/20/7 8/19/8
