# Blender v2.81 (sub 16) OBJ File: ''
# www.blender.org
mtllib model_normalized.processed.mtl
o model_normalized
v -0.036093 -0.021435 0.027270
v -0.036093 0.021435 0.027270
v -0.036093 -0.021435 -0.027270
v 0.036093 -0.021435 -0.027270
v -0.036093 0.021435 -0.027270
v 0.036093 0.021435 0.027270
v 0.036093 -0.021435 0.027270
v 0.036093 0.021435 -0.027270
vt 0.923194 0.877777
vt 0.641065 0.877777
vt 0.923194 0.500000
vt 0.000000 0.000000
vt 0.358936 0.500000
vt 0.000000 0.500000
vt 0.641065 0.500000
vt 0.076807 1.000000
vt 0.358935 0.500000
vt 0.358936 1.000000
vt 0.358936 1.000000
vt 0.641064 0.500000
vt 0.641065 1.000000
vt 0.358935 0.000000
vt 0.358936 0.500000
vt 0.358936 0.500000
vt 0.358936 0.000000
vt 0.717871 0.500000
vt 0.076807 0.500000
vt 0.717871 0.000000
vt 1.000000 0.000000
vt 0.717871 0.377777
vt 0.717871 0.000000
vt 1.000000 0.377777
vn -0.5773 -0.5773 0.5773
vn -0.5773 0.5773 0.5773
vn -0.5773 -0.5773 -0.5773
vn 0.5773 -0.5773 -0.5773
vn -0.5773 0.5773 -0.5773
vn 0.5773 0.5773 0.5773
vn 0.5773 -0.5773 0.5773
vn 0.5773 0.5773 -0.5773
g model_normalized_model_normalized_Default_OBJ
usemtl Default_OBJ
s 1
f 1/1/1 2/2/2 3/3/3
f 4/4/4 1/5/1 3/6/3
f 3/3/3 2/2/2 5/7/5
f 5/8/5 4/9/4 3/10/3
f 1/11/1 6/12/6 2/13/2
f 7/14/7 1/5/1 4/4/4
f 7/15/7 6/12/6 1/11/1
f 2/16/2 6/17/6 5/18/5
f 8/19/8 4/9/4 5/8/5
f 5/18/5 6/17/6 8/20/8
f 8/21/8 7/22/7 4/23/4
f 6/24/6 7/22/7 8/21/8
