# Blender v2.81 (sub 16) OBJ File: ''
# www.blender.org
mtllib model_normalized.processed.mtl
o model_normalized
v -0.029129 -0.079604 0.036127
v -0.029129 0.079604 0.036127
v -0.029129 -0.079604 -0.036127
v 0.029129 -0.079604 -0.036127
v -0.029129 0.079604 -0.036127
v 0.029129 0.079604 0.036127
v 0.029129 -0.079604 0.036127
v 0.029129 0.079604 -0.036127
vt 0.276809 0.687837
vt 0.276809 0.000000
vt 0.553618 0.687837
vt 0.000000 1.000000
vt 0.223191 0.687837
vt 0.223191 1.000000
vt 0.553618 0.000000
vt 0.776809 0.000000
vt 1.000000 0.687837
vt 0.776809 0.687837
vt 0.553618 0.000000
vt 0.776809 0.687837
vt 0.553618 0.687837
vt 0.000000 0.687837
vt 0.776809 0.000000
vt 0.553618 1.000000
vt 1.000000 0.000000
vt 0.776809 1.000000
vt 0.276809 0.687837
vt 0.000000 0.000000
vt 0.276809 0.000000
vt 0.000000 0.687837
vn -0.5773 -0.5773 0.5773
vn -0.5773 0.5773 0.5773
vn -0.5773 -0.5773 -0.5773
vn 0.5773 -0.5773 -0.5773
vn -0.5773 0.5773 -0.5773
vn 0.5773 0.5773 0.5773
vn 0.5773 -0.5773 0.5773
vn 0.5773 0.5773 -0.5773
g model_normalized_model_normalized_Default_OBJ
usemtl Default_OBJ
s 1
f 1/1/1 2/2/2 3/3/3
f 4/4/4 1/5/1 3/6/3
f 3/3/3 2/2/2 5/7/5
f 5/8/5 4/9/4 3/10/3
f 1/11/1 6/12/6 2/13/2
f 7/14/7 1/5/1 4/4/4
f 7/15/7 6/12/6 1/11/1
f 2/13/2 6/12/6 5/16/5
f 8/17/8 4/9/4 5/8/5
f 5/16/5 6/12/6 8/18/8
f 8/19/8 7/20/7 4/21/4
f 6/22/6 7/20/7 8/19/8
