# Blender v2.81 (sub 16) OBJ File: ''
# www.blender.org
mtllib model_normalized.processed.mtl
o model_normalized
v 0.000000 0.000000 -0.102193
v 0.006436 0.031318 -0.102193
v 0.012608 0.029381 -0.102193
v 0.018265 0.026242 -0.102193
v 0.023173 0.022028 -0.102193
v 0.027133 0.016912 -0.102193
v 0.029982 0.011104 -0.102193
v 0.031604 0.004841 -0.102193
v 0.031931 -0.001619 -0.102193
v 0.030952 -0.008014 -0.102193
v 0.028705 -0.014080 -0.102193
v 0.025283 -0.019570 -0.102193
v 0.020826 -0.024259 -0.102193
v 0.015516 -0.027955 -0.102193
v 0.009571 -0.030506 -0.102193
v 0.003235 -0.031808 -0.102193
v -0.003235 -0.031808 -0.102193
v -0.009571 -0.030506 -0.102193
v -0.015516 -0.027955 -0.102193
v -0.020826 -0.024259 -0.102193
v -0.025283 -0.019570 -0.102193
v -0.028705 -0.014080 -0.102193
v -0.030952 -0.008014 -0.102193
v -0.031931 -0.001619 -0.102193
v -0.031604 0.004841 -0.102193
v -0.029982 0.011104 -0.102193
v -0.027133 0.016912 -0.102193
v -0.023173 0.022028 -0.102193
v -0.018265 0.026242 -0.102193
v -0.012608 0.029381 -0.102193
v -0.006436 0.031318 -0.102193
v 0.000000 0.031972 -0.102193
v 0.012608 0.029381 0.102193
v 0.006436 0.031318 0.102193
v 0.000000 -0.000000 0.102193
v 0.018265 0.026242 0.102193
v 0.023173 0.022028 0.102193
v 0.027133 0.016912 0.102193
v 0.029982 0.011104 0.102193
v 0.031604 0.004841 0.102193
v 0.031931 -0.001619 0.102193
v 0.030952 -0.008014 0.102193
v 0.028705 -0.014080 0.102193
v 0.025283 -0.019570 0.102193
v 0.020826 -0.024259 0.102193
v 0.015516 -0.027955 0.102193
v 0.009571 -0.030506 0.102193
v 0.003235 -0.031808 0.102193
v -0.003235 -0.031808 0.102193
v -0.009571 -0.030506 0.102193
v -0.015516 -0.027955 0.102193
v -0.020826 -0.024259 0.102193
v -0.025283 -0.019570 0.102193
v -0.028705 -0.014080 0.102193
v -0.030952 -0.008014 0.102193
v -0.031931 -0.001619 0.102193
v -0.031604 0.004841 0.102193
v -0.029982 0.011104 0.102193
v -0.027133 0.016912 0.102193
v -0.023173 0.022028 0.102193
v -0.018265 0.026242 0.102193
v -0.012608 0.029381 0.102193
v -0.006436 0.031318 0.102193
v 0.000000 0.031972 0.102193
vt 0.869509 0.156230
vt 0.823956 0.009537
vt 0.849648 0.001603
vt 0.876153 0.000000
vt 0.902386 0.004793
vt 0.927273 0.015786
vt 0.949795 0.032528
vt 0.969031 0.054335
vt 0.984192 0.080314
vt 0.994658 0.109401
vt 1.000000 0.140404
vt 1.000000 0.172056
vt 0.994658 0.203060
vt 0.984192 0.232147
vt 0.969031 0.258125
vt 0.949795 0.279932
vt 0.927273 0.296675
vt 0.902386 0.307667
vt 0.876152 0.312460
vt 0.849647 0.310857
vt 0.823955 0.302924
vt 0.800128 0.288984
vt 0.779142 0.269610
vt 0.761855 0.245594
vt 0.748975 0.217919
vt 0.741030 0.187719
vt 0.738346 0.156230
vt 0.741031 0.124741
vt 0.748975 0.094541
vt 0.761855 0.066866
vt 0.779142 0.042850
vt 0.800129 0.023476
vt 0.761855 0.379326
vt 0.779142 0.355310
vt 0.869509 0.468690
vt 0.748975 0.407001
vt 0.741031 0.437201
vt 0.738346 0.468690
vt 0.741030 0.500180
vt 0.748975 0.530380
vt 0.761855 0.558054
vt 0.779142 0.582070
vt 0.800128 0.601445
vt 0.823955 0.615384
vt 0.849647 0.623317
vt 0.876153 0.624921
vt 0.902386 0.620128
vt 0.927273 0.609135
vt 0.949795 0.592392
vt 0.969031 0.570585
vt 0.984192 0.544607
vt 0.994658 0.515520
vt 1.000000 0.484516
vt 1.000000 0.452865
vt 0.994658 0.421861
vt 0.984192 0.392774
vt 0.969031 0.366796
vt 0.949795 0.344989
vt 0.927273 0.328246
vt 0.902386 0.317253
vt 0.876153 0.312460
vt 0.849648 0.314063
vt 0.823956 0.321997
vt 0.800128 0.335936
vt 0.167375 1.000000
vt 0.142987 1.000000
vt 0.167375 0.000000
vt 0.142987 0.000000
vt 0.116991 1.000000
vt 0.116991 0.000000
vt 0.090451 1.000000
vt 0.090452 0.000000
vt 0.064456 1.000000
vt 0.064456 0.000000
vt 0.040067 1.000000
vt 0.040067 0.000000
vt 0.018285 1.000000
vt 0.018285 0.000000
vt 0.000000 1.000000
vt 0.000000 0.000000
vt 0.567473 0.000000
vt 0.589255 0.000000
vt 0.567473 1.000000
vt 0.589255 1.000000
vt 0.613644 0.000000
vt 0.613644 1.000000
vt 0.639640 0.000000
vt 0.639640 1.000000
vt 0.666179 0.000000
vt 0.666179 1.000000
vt 0.692175 0.000000
vt 0.692175 1.000000
vt 0.716563 0.000000
vt 0.716563 1.000000
vt 0.738346 0.000000
vt 0.738346 1.000000
vt 0.396600 1.000000
vt 0.374817 1.000000
vt 0.396600 0.000000
vt 0.374817 0.000000
vt 0.350429 1.000000
vt 0.350429 0.000000
vt 0.324433 1.000000
vt 0.324433 0.000000
vt 0.297894 1.000000
vt 0.297894 0.000000
vt 0.271898 1.000000
vt 0.271898 0.000000
vt 0.247509 1.000000
vt 0.247509 0.000000
vt 0.225727 1.000000
vt 0.225727 0.000000
vt 0.207442 1.000000
vt 0.207442 0.000000
vt 0.567473 1.000000
vt 0.545690 1.000000
vt 0.567473 0.000000
vt 0.545690 0.000000
vt 0.521302 1.000000
vt 0.521302 0.000000
vt 0.495306 1.000000
vt 0.495306 0.000000
vt 0.468767 1.000000
vt 0.468767 0.000000
vt 0.442771 1.000000
vt 0.442771 0.000000
vt 0.418382 1.000000
vt 0.418382 0.000000
vt 0.396600 1.000000
vt 0.396600 0.000000
vt 0.189158 1.000000
vt 0.189158 0.000000
vt 0.207442 1.000000
vt 0.207442 0.000000
vn 0.0000 0.0000 -1.0000
vn 0.1466 0.7136 -0.6850
vn 0.2873 0.6695 -0.6850
vn 0.4162 0.5979 -0.6850
vn 0.5280 0.5019 -0.6850
vn 0.6182 0.3854 -0.6850
vn 0.6832 0.2530 -0.6850
vn 0.7201 0.1103 -0.6850
vn 0.7276 -0.0369 -0.6850
vn 0.7053 -0.1826 -0.6850
vn 0.6540 -0.3208 -0.6850
vn 0.5761 -0.4459 -0.6850
vn 0.4745 -0.5528 -0.6850
vn 0.3535 -0.6370 -0.6850
vn 0.2181 -0.6951 -0.6850
vn 0.0737 -0.7248 -0.6850
vn -0.0737 -0.7248 -0.6850
vn -0.2181 -0.6951 -0.6850
vn -0.3535 -0.6370 -0.6850
vn -0.4745 -0.5528 -0.6850
vn -0.5761 -0.4459 -0.6850
vn -0.6540 -0.3208 -0.6850
vn -0.7053 -0.1826 -0.6850
vn -0.7276 -0.0369 -0.6850
vn -0.7201 0.1103 -0.6850
vn -0.6832 0.2530 -0.6850
vn -0.6182 0.3854 -0.6850
vn -0.5280 0.5019 -0.6850
vn -0.4162 0.5979 -0.6850
vn -0.2873 0.6695 -0.6850
vn -0.1466 0.7136 -0.6850
vn 0.0000 0.7285 -0.6850
vn 0.2873 0.6695 0.6850
vn 0.1466 0.7136 0.6850
vn 0.0000 0.0000 1.0000
vn 0.4162 0.5979 0.6850
vn 0.5280 0.5019 0.6850
vn 0.6182 0.3854 0.6850
vn 0.6832 0.2530 0.6850
vn 0.7201 0.1103 0.6850
vn 0.7276 -0.0369 0.6850
vn 0.7053 -0.1826 0.6850
vn 0.6540 -0.3208 0.6850
vn 0.5761 -0.4459 0.6850
vn 0.4745 -0.5528 0.6850
vn 0.3535 -0.6370 0.6850
vn 0.2181 -0.6951 0.6850
vn 0.0737 -0.7248 0.6850
vn -0.0737 -0.7248 0.6850
vn -0.2181 -0.6951 0.6850
vn -0.3535 -0.6370 0.6850
vn -0.4745 -0.5528 0.6850
vn -0.5761 -0.4459 0.6850
vn -0.6540 -0.3208 0.6850
vn -0.7053 -0.1826 0.6850
vn -0.7276 -0.0369 0.6850
vn -0.7201 0.1103 0.6850
vn -0.6832 0.2530 0.6850
vn -0.6182 0.3854 0.6850
vn -0.5280 0.5019 0.6850
vn -0.4162 0.5979 0.6850
vn -0.2873 0.6695 0.6850
vn -0.1466 0.7136 0.6850
vn 0.0000 0.7285 0.6850
g model_normalized_model_normalized_Default_OBJ
usemtl Default_OBJ
s 1
f 1/1/1 2/2/2 3/3/3
f 1/1/1 3/3/3 4/4/4
f 1/1/1 4/4/4 5/5/5
f 1/1/1 5/5/5 6/6/6
f 1/1/1 6/6/6 7/7/7
f 1/1/1 7/7/7 8/8/8
f 1/1/1 8/8/8 9/9/9
f 1/1/1 9/9/9 10/10/10
f 1/1/1 10/10/10 11/11/11
f 1/1/1 11/11/11 12/12/12
f 1/1/1 12/12/12 13/13/13
f 1/1/1 13/13/13 14/14/14
f 1/1/1 14/14/14 15/15/15
f 1/1/1 15/15/15 16/16/16
f 1/1/1 16/16/16 17/17/17
f 1/1/1 17/17/17 18/18/18
f 1/1/1 18/18/18 19/19/19
f 1/1/1 19/19/19 20/20/20
f 1/1/1 20/20/20 21/21/21
f 1/1/1 21/21/21 22/22/22
f 1/1/1 22/22/22 23/23/23
f 1/1/1 23/23/23 24/24/24
f 1/1/1 24/24/24 25/25/25
f 1/1/1 25/25/25 26/26/26
f 1/1/1 26/26/26 27/27/27
f 1/1/1 27/27/27 28/28/28
f 1/1/1 28/28/28 29/29/29
f 1/1/1 29/29/29 30/30/30
f 1/1/1 30/30/30 31/31/31
f 1/1/1 31/31/31 32/32/32
f 1/1/1 32/32/32 2/2/2
f 33/33/33 34/34/34 35/35/35
f 36/36/36 33/33/33 35/35/35
f 37/37/37 36/36/36 35/35/35
f 38/38/38 37/37/37 35/35/35
f 39/39/39 38/38/38 35/35/35
f 40/40/40 39/39/39 35/35/35
f 41/41/41 40/40/40 35/35/35
f 42/42/42 41/41/41 35/35/35
f 43/43/43 42/42/42 35/35/35
f 44/44/44 43/43/43 35/35/35
f 45/45/45 44/44/44 35/35/35
f 46/46/46 45/45/45 35/35/35
f 47/47/47 46/46/46 35/35/35
f 48/48/48 47/47/47 35/35/35
f 49/49/49 48/48/48 35/35/35
f 50/50/50 49/49/49 35/35/35
f 51/51/51 50/50/50 35/35/35
f 52/52/52 51/51/51 35/35/35
f 53/53/53 52/52/52 35/35/35
f 54/54/54 53/53/53 35/35/35
f 55/55/55 54/54/54 35/35/35
f 56/56/56 55/55/55 35/35/35
f 57/57/57 56/56/56 35/35/35
f 58/58/58 57/57/57 35/35/35
f 59/59/59 58/58/58 35/35/35
f 60/60/60 59/59/59 35/35/35
f 61/61/61 60/60/60 35/35/35
f 62/62/62 61/61/61 35/35/35
f 63/63/63 62/62/62 35/35/35
f 64/64/64 63/63/63 35/35/35
f 34/34/34 64/64/64 35/35/35
f 34/65/34 33/66/33 2/67/2
f 2/67/2 33/66/33 3/68/3
f 33/66/33 36/69/36 3/68/3
f 3/68/3 36/69/36 4/70/4
f 36/69/36 37/71/37 4/70/4
f 4/70/4 37/71/37 5/72/5
f 37/71/37 38/73/38 5/72/5
f 5/72/5 38/73/38 6/74/6
f 38/73/38 39/75/39 6/74/6
f 6/74/6 39/75/39 7/76/7
f 39/75/39 40/77/40 7/76/7
f 7/76/7 40/77/40 8/78/8
f 40/77/40 41/79/41 8/78/8
f 8/78/8 41/79/41 9/80/9
f 41/81/41 42/82/42 9/83/9
f 9/83/9 42/82/42 10/84/10
f 42/82/42 43/85/43 10/84/10
f 10/84/10 43/85/43 11/86/11
f 43/85/43 44/87/44 11/86/11
f 11/86/11 44/87/44 12/88/12
f 44/87/44 45/89/45 12/88/12
f 12/88/12 45/89/45 13/90/13
f 45/89/45 46/91/46 13/90/13
f 13/90/13 46/91/46 14/92/14
f 46/91/46 47/93/47 14/92/14
f 14/92/14 47/93/47 15/94/15
f 47/93/47 48/95/48 15/94/15
f 15/94/15 48/95/48 16/96/16
f 48/97/48 49/98/49 16/99/16
f 16/99/16 49/98/49 17/100/17
f 49/98/49 50/101/50 17/100/17
f 17/100/17 50/101/50 18/102/18
f 50/101/50 51/103/51 18/102/18
f 18/102/18 51/103/51 19/104/19
f 51/103/51 52/105/52 19/104/19
f 19/104/19 52/105/52 20/106/20
f 52/105/52 53/107/53 20/106/20
f 20/106/20 53/107/53 21/108/21
f 53/107/53 54/109/54 21/108/21
f 21/108/21 54/109/54 22/110/22
f 54/109/54 55/111/55 22/110/22
f 22/110/22 55/111/55 23/112/23
f 55/111/55 56/113/56 23/112/23
f 23/112/23 56/113/56 24/114/24
f 56/115/56 57/116/57 24/117/24
f 24/117/24 57/116/57 25/118/25
f 57/116/57 58/119/58 25/118/25
f 25/118/25 58/119/58 26/120/26
f 58/119/58 59/121/59 26/120/26
f 26/120/26 59/121/59 27/122/27
f 59/121/59 60/123/60 27/122/27
f 27/122/27 60/123/60 28/124/28
f 60/123/60 61/125/61 28/124/28
f 28/124/28 61/125/61 29/126/29
f 61/125/61 62/127/62 29/126/29
f 29/126/29 62/127/62 30/128/30
f 62/127/62 63/129/63 30/128/30
f 30/128/30 63/129/63 31/130/31
f 64/131/64 34/65/34 32/132/32
f 32/132/32 34/65/34 2/67/2
f 63/133/63 64/131/64 31/134/31
f 31/134/31 64/131/64 32/132/32
