# Blender v2.81 (sub 16) OBJ File: ''
# www.blender.org
mtllib model_normalized.processed.mtl
o model_normalized
v 0.000000 0.000000 -0.022029
v 0.007760 0.037761 -0.022029
v 0.015202 0.035426 -0.022029
v 0.022022 0.031640 -0.022029
v 0.027941 0.026559 -0.022029
v 0.032715 0.020391 -0.022029
v 0.036150 0.013389 -0.022029
v 0.038105 0.005837 -0.022029
v 0.038500 -0.001953 -0.022029
v 0.037319 -0.009663 -0.022029
v 0.034610 -0.016977 -0.022029
v 0.030484 -0.023596 -0.022029
v 0.025110 -0.029250 -0.022029
v 0.018708 -0.033706 -0.022029
v 0.011540 -0.036782 -0.022029
v 0.003900 -0.038352 -0.022029
v -0.003900 -0.038352 -0.022029
v -0.011540 -0.036782 -0.022029
v -0.018708 -0.033706 -0.022029
v -0.025110 -0.029250 -0.022029
v -0.030484 -0.023596 -0.022029
v -0.034610 -0.016977 -0.022029
v -0.037319 -0.009663 -0.022029
v -0.038500 -0.001953 -0.022029
v -0.038105 0.005837 -0.022029
v -0.036150 0.013389 -0.022029
v -0.032715 0.020391 -0.022029
v -0.027941 0.026559 -0.022029
v -0.022022 0.031640 -0.022029
v -0.015202 0.035426 -0.022029
v -0.007760 0.037761 -0.022029
v 0.000000 0.038550 -0.022029
v 0.015202 0.035426 0.022029
v 0.007760 0.037761 0.022029
v 0.000000 -0.000000 0.022029
v 0.022022 0.031640 0.022029
v 0.027941 0.026559 0.022029
v 0.032715 0.020391 0.022029
v 0.036150 0.013388 0.022029
v 0.038105 0.005837 0.022029
v 0.038500 -0.001953 0.022029
v 0.037319 -0.009663 0.022029
v 0.034610 -0.016977 0.022029
v 0.030484 -0.023596 0.022029
v 0.025110 -0.029250 0.022029
v 0.018708 -0.033706 0.022029
v 0.011540 -0.036782 0.022029
v 0.003900 -0.038352 0.022029
v -0.003900 -0.038352 0.022029
v -0.011540 -0.036782 0.022029
v -0.018708 -0.033706 0.022029
v -0.025110 -0.029250 0.022029
v -0.030484 -0.023596 0.022029
v -0.034610 -0.016977 0.022029
v -0.037319 -0.009663 0.022029
v -0.038500 -0.001953 0.022029
v -0.038105 0.005837 0.022029
v -0.036150 0.013388 0.022029
v -0.032715 0.020391 0.022029
v -0.027941 0.026559 0.022029
v -0.022022 0.031640 0.022029
v -0.015202 0.035426 0.022029
v -0.007760 0.037761 0.022029
v 0.000000 0.038550 0.022029
vt 0.233608 0.216974
vt 0.466017 0.238954
vt 0.456502 0.282012
vt 0.437862 0.322408
vt 0.410859 0.358487
vt 0.376600 0.388773
vt 0.336487 0.412025
vt 0.292162 0.427292
vt 0.245440 0.433949
vt 0.198233 0.431722
vt 0.152475 0.420704
vt 0.110038 0.401345
vt 0.072660 0.374438
vt 0.041871 0.341084
vt 0.018932 0.302649
vt 0.004782 0.260707
vt 0.000000 0.216974
vt 0.004782 0.173242
vt 0.018932 0.131299
vt 0.041871 0.092865
vt 0.072660 0.059511
vt 0.110038 0.032604
vt 0.152474 0.013245
vt 0.198233 0.002226
vt 0.245440 0.000000
vt 0.292162 0.006657
vt 0.336487 0.021923
vt 0.376600 0.045176
vt 0.410859 0.075462
vt 0.437862 0.111541
vt 0.456502 0.151937
vt 0.466017 0.194995
vt 0.903879 0.111541
vt 0.922519 0.151937
vt 0.699624 0.216974
vt 0.876876 0.075462
vt 0.842617 0.045176
vt 0.802504 0.021923
vt 0.758179 0.006656
vt 0.711456 0.000000
vt 0.664250 0.002226
vt 0.618491 0.013245
vt 0.576054 0.032604
vt 0.538676 0.059511
vt 0.507888 0.092865
vt 0.484949 0.131299
vt 0.470799 0.173242
vt 0.466017 0.216974
vt 0.470799 0.260707
vt 0.484949 0.302649
vt 0.507888 0.341084
vt 0.538677 0.374438
vt 0.576054 0.401345
vt 0.618491 0.420704
vt 0.664250 0.431722
vt 0.711457 0.433949
vt 0.758179 0.427292
vt 0.802504 0.412025
vt 0.842617 0.388773
vt 0.876876 0.358487
vt 0.903879 0.322408
vt 0.922519 0.282012
vt 0.932034 0.238953
vt 0.932034 0.194995
vt 1.000000 0.510424
vt 1.000000 0.553482
vt 0.733008 0.510424
vt 0.733008 0.553482
vt 1.000000 0.597441
vt 0.733008 0.597441
vt 1.000000 0.640499
vt 0.733008 0.640499
vt 1.000000 0.680895
vt 0.733008 0.680895
vt 1.000000 0.716974
vt 0.733008 0.716974
vt 0.733008 0.433949
vt 0.733008 0.464235
vt 0.466017 0.433949
vt 0.466017 0.464235
vt 0.733008 0.500314
vt 0.466017 0.500314
vt 0.733008 0.540710
vt 0.466017 0.540710
vt 0.733008 0.583768
vt 0.466017 0.583768
vt 0.733008 0.627726
vt 0.466017 0.627726
vt 0.733008 0.670785
vt 0.466017 0.670785
vt 0.733008 0.711181
vt 0.466017 0.711181
vt 0.733008 0.747260
vt 0.466017 0.747260
vt 0.733008 0.777546
vt 0.466017 0.777546
vt 0.733008 1.000000
vt 0.733008 0.963921
vt 1.000000 1.000000
vt 1.000000 0.963921
vt 0.733008 0.923525
vt 1.000000 0.923525
vt 0.733008 0.880466
vt 1.000000 0.880466
vt 0.733008 0.836508
vt 1.000000 0.836508
vt 0.733008 0.793450
vt 1.000000 0.793450
vt 0.733008 0.753054
vt 1.000000 0.753054
vt 0.733008 0.716975
vt 1.000000 0.716974
vt 0.199025 0.747260
vt 0.199025 0.711181
vt 0.466017 0.747260
vt 0.466017 0.711181
vt 0.199025 0.670785
vt 0.466017 0.670785
vt 0.199025 0.627727
vt 0.466017 0.627726
vt 0.199025 0.583768
vt 0.466017 0.583768
vt 0.199025 0.540710
vt 0.466017 0.540710
vt 0.199025 0.500314
vt 0.466017 0.500314
vt 0.199025 0.464235
vt 0.466017 0.464235
vt 0.199025 0.433949
vt 0.466017 0.433949
vt 1.000000 0.470028
vt 0.733008 0.470028
vt 1.000000 0.433949
vt 0.733008 0.433949
vn 0.0000 0.0000 -1.0000
vn 0.1466 0.7136 -0.6850
vn 0.2873 0.6695 -0.6850
vn 0.4162 0.5979 -0.6850
vn 0.5280 0.5019 -0.6850
vn 0.6182 0.3854 -0.6850
vn 0.6832 0.2530 -0.6850
vn 0.7201 0.1103 -0.6850
vn 0.7276 -0.0369 -0.6850
vn 0.7053 -0.1826 -0.6850
vn 0.6540 -0.3208 -0.6850
vn 0.5761 -0.4459 -0.6850
vn 0.4745 -0.5528 -0.6850
vn 0.3535 -0.6370 -0.6850
vn 0.2181 -0.6951 -0.6850
vn 0.0737 -0.7248 -0.6850
vn -0.0737 -0.7248 -0.6850
vn -0.2181 -0.6951 -0.6850
vn -0.3535 -0.6370 -0.6850
vn -0.4745 -0.5528 -0.6850
vn -0.5761 -0.4459 -0.6850
vn -0.6540 -0.3208 -0.6850
vn -0.7053 -0.1826 -0.6850
vn -0.7276 -0.0369 -0.6850
vn -0.7201 0.1103 -0.6850
vn -0.6832 0.2530 -0.6850
vn -0.6182 0.3854 -0.6850
vn -0.5280 0.5019 -0.6850
vn -0.4162 0.5979 -0.6850
vn -0.2873 0.6695 -0.6850
vn -0.1466 0.7136 -0.6850
vn 0.0000 0.7285 -0.6850
vn 0.2873 0.6695 0.6850
vn 0.1466 0.7136 0.6850
vn 0.0000 0.0000 1.0000
vn 0.4162 0.5979 0.6850
vn 0.5280 0.5019 0.6850
vn 0.6182 0.3854 0.6850
vn 0.6832 0.2530 0.6850
vn 0.7201 0.1103 0.6850
vn 0.7276 -0.0369 0.6850
vn 0.7053 -0.1826 0.6850
vn 0.6540 -0.3208 0.6850
vn 0.5761 -0.4459 0.6850
vn 0.4745 -0.5528 0.6850
vn 0.3535 -0.6370 0.6850
vn 0.2181 -0.6951 0.6850
vn 0.0737 -0.7248 0.6850
vn -0.0737 -0.7248 0.6850
vn -0.2181 -0.6951 0.6850
vn -0.3535 -0.6370 0.6850
vn -0.4745 -0.5528 0.6850
vn -0.5761 -0.4459 0.6850
vn -0.6540 -0.3208 0.6850
vn -0.7053 -0.1826 0.6850
vn -0.7276 -0.0369 0.6850
vn -0.7201 0.1103 0.6850
vn -0.6832 0.2530 0.6850
vn -0.6182 0.3854 0.6850
vn -0.5280 0.5019 0.6850
vn -0.4162 0.5979 0.6850
vn -0.2873 0.6695 0.6850
vn -0.1466 0.7136 0.6850
vn 0.0000 0.7285 0.6850
g model_normalized_model_normalized_Default_OBJ
usemtl Default_OBJ
s 1
f 1/1/1 2/2/2 3/3/3
f 1/1/1 3/3/3 4/4/4
f 1/1/1 4/4/4 5/5/5
f 1/1/1 5/5/5 6/6/6
f 1/1/1 6/6/6 7/7/7
f 1/1/1 7/7/7 8/8/8
f 1/1/1 8/8/8 9/9/9
f 1/1/1 9/9/9 10/10/10
f 1/1/1 10/10/10 11/11/11
f 1/1/1 11/11/11 12/12/12
f 1/1/1 12/12/12 13/13/13
f 1/1/1 13/13/13 14/14/14
f 1/1/1 14/14/14 15/15/15
f 1/1/1 15/15/15 16/16/16
f 1/1/1 16/16/16 17/17/17
f 1/1/1 17/17/17 18/18/18
f 1/1/1 18/18/18 19/19/19
f 1/1/1 19/19/19 20/20/20
f 1/1/1 20/20/20 21/21/21
f 1/1/1 21/21/21 22/22/22
f 1/1/1 22/22/22 23/23/23
f 1/1/1 23/23/23 24/24/24
f 1/1/1 24/24/24 25/25/25
f 1/1/1 25/25/25 26/26/26
f 1/1/1 26/26/26 27/27/27
f 1/1/1 27/27/27 28/28/28
f 1/1/1 28/28/28 29/29/29
f 1/1/1 29/29/29 30/30/30
f 1/1/1 30/30/30 31/31/31
f 1/1/1 31/31/31 32/32/32
f 1/1/1 32/32/32 2/2/2
f 33/33/33 34/34/34 35/35/35
f 36/36/36 33/33/33 35/35/35
f 37/37/37 36/36/36 35/35/35
f 38/38/38 37/37/37 35/35/35
f 39/39/39 38/38/38 35/35/35
f 40/40/40 39/39/39 35/35/35
f 41/41/41 40/40/40 35/35/35
f 42/42/42 41/41/41 35/35/35
f 43/43/43 42/42/42 35/35/35
f 44/44/44 43/43/43 35/35/35
f 45/45/45 44/44/44 35/35/35
f 46/46/46 45/45/45 35/35/35
f 47/47/47 46/46/46 35/35/35
f 48/48/48 47/47/47 35/35/35
f 49/49/49 48/48/48 35/35/35
f 50/50/50 49/49/49 35/35/35
f 51/51/51 50/50/50 35/35/35
f 52/52/52 51/51/51 35/35/35
f 53/53/53 52/52/52 35/35/35
f 54/54/54 53/53/53 35/35/35
f 55/55/55 54/54/54 35/35/35
f 56/56/56 55/55/55 35/35/35
f 57/57/57 56/56/56 35/35/35
f 58/58/58 57/57/57 35/35/35
f 59/59/59 58/58/58 35/35/35
f 60/60/60 59/59/59 35/35/35
f 61/61/61 60/60/60 35/35/35
f 62/62/62 61/61/61 35/35/35
f 63/63/63 62/62/62 35/35/35
f 64/64/64 63/63/63 35/35/35
f 34/34/34 64/64/64 35/35/35
f 34/65/34 33/66/33 2/67/2
f 2/67/2 33/66/33 3/68/3
f 33/66/33 36/69/36 3/68/3
f 3/68/3 36/69/36 4/70/4
f 36/69/36 37/71/37 4/70/4
f 4/70/4 37/71/37 5/72/5
f 37/71/37 38/73/38 5/72/5
f 5/72/5 38/73/38 6/74/6
f 38/73/38 39/75/39 6/74/6
f 6/74/6 39/75/39 7/76/7
f 39/77/39 40/78/40 7/79/7
f 7/79/7 40/78/40 8/80/8
f 40/78/40 41/81/41 8/80/8
f 8/80/8 41/81/41 9/82/9
f 41/81/41 42/83/42 9/82/9
f 9/82/9 42/83/42 10/84/10
f 42/83/42 43/85/43 10/84/10
f 10/84/10 43/85/43 11/86/11
f 43/85/43 44/87/44 11/86/11
f 11/86/11 44/87/44 12/88/12
f 44/87/44 45/89/45 12/88/12
f 12/88/12 45/89/45 13/90/13
f 45/89/45 46/91/46 13/90/13
f 13/90/13 46/91/46 14/92/14
f 46/91/46 47/93/47 14/92/14
f 14/92/14 47/93/47 15/94/15
f 47/93/47 48/95/48 15/94/15
f 15/94/15 48/95/48 16/96/16
f 48/97/48 49/98/49 16/99/16
f 16/99/16 49/98/49 17/100/17
f 49/98/49 50/101/50 17/100/17
f 17/100/17 50/101/50 18/102/18
f 50/101/50 51/103/51 18/102/18
f 18/102/18 51/103/51 19/104/19
f 51/103/51 52/105/52 19/104/19
f 19/104/19 52/105/52 20/106/20
f 52/105/52 53/107/53 20/106/20
f 20/106/20 53/107/53 21/108/21
f 53/107/53 54/109/54 21/108/21
f 21/108/21 54/109/54 22/110/22
f 54/109/54 55/111/55 22/110/22
f 22/110/22 55/111/55 23/112/23
f 55/113/55 56/114/56 23/115/23
f 23/115/23 56/114/56 24/116/24
f 56/114/56 57/117/57 24/116/24
f 24/116/24 57/117/57 25/118/25
f 57/117/57 58/119/58 25/118/25
f 25/118/25 58/119/58 26/120/26
f 58/119/58 59/121/59 26/120/26
f 26/120/26 59/121/59 27/122/27
f 59/121/59 60/123/60 27/122/27
f 27/122/27 60/123/60 28/124/28
f 60/123/60 61/125/61 28/124/28
f 28/124/28 61/125/61 29/126/29
f 61/125/61 62/127/62 29/126/29
f 29/126/29 62/127/62 30/128/30
f 62/127/62 63/129/63 30/128/30
f 30/128/30 63/129/63 31/130/31
f 64/131/64 34/65/34 32/132/32
f 32/132/32 34/65/34 2/67/2
f 63/133/63 64/131/64 31/134/31
f 31/134/31 64/131/64 32/132/32
